<?xml version="1.0" encoding="UTF-8"?>
<svg width="469px" height="349px" viewBox="0 0 469 349" version="1.1" xmlns="http://www.w3.org/2000/svg" xmlns:xlink="http://www.w3.org/1999/xlink">
    <!-- Generator: Sketch 57.1 (83088) - https://sketch.com -->
    <title>undraw_profile_data_mk6k</title>
    <desc>Created with Sketch.</desc>
    <g id="Page-1" stroke="none" stroke-width="1" fill="none" fill-rule="evenodd">
        <g id="Packtag" transform="translate(-816.000000, -200.000000)" fill-rule="nonzero">
            <g id="undraw_profile_data_mk6k" transform="translate(1050.500000, 374.500000) scale(-1, 1) translate(-1050.500000, -374.500000) translate(816.000000, 200.000000)">
                <circle id="Oval" fill="#F2F2F2" cx="181.5" cy="167.5" r="167.5"></circle>
                <path d="M89.5248646,62.3354734 L86,90.1809238 C90.3265442,98.4527764 94.9091998,107.856507 99.2796142,118 L107.580495,76.0119881 L108,76.3858974 C101.93108,70.3871095 95.5470859,65.5038944 89.0986021,62 L89.5248646,62.3354734 Z" id="Path" fill="#F56250"></path>
                <path d="M85.693366,88 L89,60.9589775 C81.9756454,57.0811644 74.8794905,54.9624588 68.0559376,55.0005036 C67.7009263,55.0025011 67.3501968,55.0148727 67,55.0284285 C68.3705181,57.1471545 76.3322621,69.6372341 85.693366,88 Z" id="Path" fill="#F56250"></path>
                <path d="M141.631264,132.615845 L142,133.121641 C140.77584,129.337345 139.42653,125.630132 137.95207,122 L117.17748,169.308903 L117,169.084585 C117.525675,171.412191 118.01003,173.717329 118.453064,176 L141.631264,132.615845 Z" id="Path" fill="#F56250"></path>
                <path d="M126.604267,101.346498 L127,101.794666 C121.756108,92.8171906 115.470725,84.4943327 108.275186,77 L100,119.980313 C103.963553,129.548499 107.379091,138.888395 110.246614,148 L126.604267,101.346498 Z" id="Path" fill="#F56250"></path>
                <path d="M34.3053583,99 C33.7541721,106.435231 33.9495403,113.907579 34.8884867,121.303214 L108,142 C105.351283,134.099429 102.500588,126.623556 99.664239,119.768531 L34.3935711,99.6229386 L34.3053583,99 Z" id="Path" fill="#F56250"></path>
                <path d="M35.2574314,129.894389 L35.15693,129.274977 L110,149 C109.391977,147.060541 108.769483,145.142971 108.13252,143.247291 L34.0962403,122.619569 L34,122 C34.331993,124.588211 34.7511368,127.219674 35.2574314,129.894389 Z" id="Path" fill="#F56250"></path>
                <path d="M136.616634,120.454672 L137,120.931972 C134.284113,114.416026 131.132234,108.091003 127.565839,102 L111,149.161799 C112.876226,155.232635 114.49845,161.178702 115.866671,167 L136.616634,120.454672 Z" id="Path" fill="#F56250"></path>
                <path d="M120.921514,201.497191 C121.673238,215.080302 120.699481,227.628098 118,239 C123.721899,230.68372 146.005131,195.982206 146,160 L120.921514,201.497191 Z" id="Path" fill="#F56250"></path>
                <path d="M45,158 C48.0622352,164.032658 51.527344,169.854401 55.3720419,175.42611 L55.3022347,174.748398 L120,200 C119.505203,192.495549 118.55843,185.027376 117.164781,177.635708 L45,158 Z" id="Path" fill="#F56250"></path>
                <path d="M85,89 C74.7758617,69.3174977 66.2334503,56.5205423 66.1104134,56.3372345 L66.3464673,56 C55.8969541,56.5429585 47.6161025,62.12026 42,71.2853602 L85,89 Z" id="Path" fill="#F56250"></path>
                <path d="M118,177.612871 C118.13188,178.317062 118.267762,179.023537 118.391683,179.723272 C119.591597,186.43108 120.429604,193.200008 120.901984,200 L145.651213,159.195937 L146,159.697633 C145.947253,153.408979 145.107137,147.152424 143.49972,141.077426 C142.857496,138.693339 142.161897,136.334197 141.412923,134 L118,177.612871 Z" id="Path" fill="#F56250"></path>
                <path d="M99,118 C94.7446897,107.831672 90.288918,98.4077588 86.0832727,90.1163125 L41.8192806,71.6129977 L41.7635076,71 C37.5805797,78.1309232 34.9230301,87.3228806 34,97.9452517 L99,118 Z" id="Path" fill="#F56250"></path>
                <path d="M120.76041,202.105963 L56,177 C79.2369522,210.467722 114.911309,239.180886 117.190713,241 C120.572785,228.578328 121.50369,215.385273 120.76041,202.105963 Z" id="Path" fill="#F56250"></path>
                <path d="M116.977606,177 L117,176.958233 C115.258061,167.858767 113.033617,158.860955 110.336334,150.003897 L36,130 C36.6957308,133.662791 37.5520295,137.391595 38.5688961,141.186412 C40.0690648,146.601772 42.0536702,151.867219 44.4980476,156.917314 L116.977606,177 Z" id="Path" fill="#F56250"></path>
                <path d="M216.076321,179.52955 L195.727666,198.98412 C193.713348,208.147158 191.171447,218.35248 188,229 L220.923085,201.544699 L221,202.099905 C220.262172,193.60898 218.578733,185.787954 215.969915,179 L216.076321,179.52955 Z" id="Path" fill="#F56250"></path>
                <path d="M196,198 L216,179.033322 C212.974872,171.405618 208.761251,165.105555 203.374031,160.66929 C203.093738,160.438497 202.810133,160.218612 202.526185,160 C202.239831,162.552664 200.459585,177.523833 196,198 Z" id="Path" fill="#F56250"></path>
                <path d="M211.086782,266.580715 L211.052674,267.210486 C212.516469,263.495465 213.832245,259.758636 215,256 L168.288188,279.008756 L168.292308,278.720396 C167.212998,280.857776 166.115562,282.950978 165,285 L211.086782,266.580715 Z" id="Path" fill="#F56250"></path>
                <path d="M219.267665,233.50874 L219.287509,234.107701 C220.957001,223.828082 221.40796,213.38612 220.630965,203 L186.925015,230.835827 C183.893643,240.75086 180.585304,250.138918 177,259 L219.267665,233.50874 Z" id="Path" fill="#F56250"></path>
                <path d="M149.698981,173 C144.55633,178.338509 139.966697,184.182459 136,190.442824 L179.333908,253 C182.300484,245.260674 184.84164,237.717329 187,230.658351 L149.371908,173.533157 L149.698981,173 Z" id="Path" fill="#F56250"></path>
                <path d="M131,197.886747 L131.317103,197.345232 L175.76621,260 C176.535736,258.118508 177.280332,256.244731 178,254.378669 L134.738783,191.538942 L135.059226,191 C133.667282,193.206988 132.314207,195.502571 131,197.886747 Z" id="Path" fill="#F56250"></path>
                <path d="M215.160035,255.186128 L215.151173,255.804469 C217.233852,248.986525 218.853808,242.035915 220,235 L176.702747,260.991132 C174.252671,266.921551 171.685089,272.591173 169,278 L215.160035,255.186128 Z" id="Path" fill="#F56250"></path>
                <path d="M151.101681,307.825764 C143.057712,318.84795 134.327459,327.942433 125,335 C134.740464,332.282218 174.144082,319.903269 197,292 L151.101681,307.825764 Z" id="Path" fill="#F56250"></path>
                <path d="M120.171498,225 C118.66814,231.676913 117.608601,238.448258 117,245.268535 L117.379277,244.694747 L150.891901,306 C155.305148,299.825246 159.34844,293.388201 163,286.723535 L120.171498,225 Z" id="Path" fill="#F56250"></path>
                <path d="M195.071108,197 C199.908659,175.314636 201.572272,160.012352 201.595595,159.792716 L202,159.682262 C193.476091,153.466837 183.365802,152.514592 173,156.023819 L195.071108,197 Z" id="Path" fill="#F56250"></path>
                <path d="M164.001699,286.680636 C163.655784,287.314804 163.311505,287.953367 162.962228,288.578877 C159.62328,294.582969 155.963787,300.398618 152,306 L197.249028,290.377311 L197.200864,290.995306 C201.165476,286.065631 204.496961,280.647452 207.115734,274.8702 C208.134581,272.595521 209.096003,270.305455 210,268 L164.001699,286.680636 Z" id="Path" fill="#F56250"></path>
                <path d="M187.31241,229 C190.465757,218.5764 192.994527,208.59128 195,199.625147 L172.653396,157.501096 L172.997885,157 C165.274885,159.765558 157.422475,165.064182 150,172.549366 L187.31241,229 Z" id="Path" fill="#F56250"></path>
                <path d="M150,307.24945 L116.881477,247 C113.237416,287.487034 122.033099,332.157747 122.604943,335 C133.052492,327.552583 142.13297,317.962728 150,307.24945 Z" id="Path" fill="#F56250"></path>
                <path d="M163.132126,286 L163.175628,285.982404 C167.55794,277.896652 171.505115,269.578799 175,261.064985 L130.389815,198 C128.62162,201.251239 126.935441,204.656163 125.331278,208.214772 C123.079815,213.32456 121.295329,218.630744 120,224.067381 L163.132126,286 Z" id="Path" fill="#F56250"></path>
                <path d="M44.5040182,181.193456 L49.8823331,209.187869 C56.5157126,215.85496 63.7419801,223.537422 71,232 L65.6880741,188.871131 L66.1977739,189.103783 C58.6402825,185.168292 51.1353317,182.407693 44,181 L44.5040182,181.193456 Z" id="Path" fill="#F56250"></path>
                <path d="M48,208 L42.8538076,180.972771 C34.9472285,179.465359 27.5124879,179.670892 21.0008938,181.862659 C20.6621198,181.976705 20.3306254,182.099369 20,182.223008 C21.9611206,183.825979 33.4095855,193.31256 48,208 Z" id="Path" fill="#F56250"></path>
                <path d="M114.489265,231.864919 L115,232.227027 C112.656362,229.039652 110.215948,225.963976 107.67876,223 L102.23994,274.087404 L102,273.931161 C103.222683,275.962425 104.398665,277.985371 105.527945,280 L114.489265,231.864919 Z" id="Path" fill="#F56250"></path>
                <path d="M91.4743928,206.494001 L92,206.797932 C84.0784412,199.876941 75.3509874,193.902686 66,189 L71.4901522,232.498667 C78.3536128,240.379694 84.6127132,248.213471 90.2674534,256 L91.4743928,206.494001 Z" id="Path" fill="#F56250"></path>
                <path d="M2,233.625017 C3.77087615,240.986952 6.26945428,248.148312 9.45767148,255 L86,251.850126 C81.015308,245.051888 75.968202,238.728127 71.1268815,233 L2.27730473,234.199253 L2,233.625017 Z" id="Path" fill="#F56250"></path>
                <path d="M13.6239023,262 L13.3378312,261.421552 L90,257.075371 C88.8276735,255.357414 87.6484601,253.665624 86.4623598,252 L10.2821057,255.200277 L10,254.620321 C11.1124393,257.065306 12.3204067,259.525199 13.6239023,262 Z" id="Path" fill="#F56250"></path>
                <path d="M106.488467,221.876401 L107,222.214534 C102.409294,216.812245 97.4631594,211.729188 92.1952994,207 L91,257.408801 C94.655495,262.646253 98.0311298,267.84332 101.126904,273 L106.488467,221.876401 Z" id="Path" fill="#F56250"></path>
                <path d="M117,304.38146 C121.829398,317.075739 124.71094,329.326497 125.60173,341 C128.499427,331.285822 139.082372,291.251619 128.170065,257 L117,304.38146 Z" id="Path" fill="#F56250"></path>
                <path d="M31,286.621059 C35.8219607,291.558346 40.9638849,296.161572 46.3912201,300.399804 L46.1122235,299.75833 L116,304 C113.177138,296.808795 109.932612,289.796204 106.2839,283 L31,286.621059 Z" id="Path" fill="#F56250"></path>
                <path d="M48,208 C31.9486121,192.212088 19.6872993,182.536814 19.5110025,182.398435 L19.632072,182 C9.73852015,185.773983 3.52052678,193.725039 1,204.304773 L48,208 Z" id="Path" fill="#F56250"></path>
                <path d="M107,281.670186 C107.33808,282.297001 107.680626,282.924718 108.009842,283.549808 C111.177052,289.538143 114.021139,295.697323 116.529475,302 L127.518566,255.577288 L128,255.944379 C126.042902,249.995847 123.35222,244.323328 119.992229,239.062326 C118.662859,237.001241 117.290666,234.980466 115.87565,233 L107,281.670186 Z" id="Path" fill="#F56250"></path>
                <path d="M70,231.827325 C62.8346672,223.495554 55.7070111,215.932972 49.1645462,209.367921 L1.39548074,205.564722 L1.15443529,205 C-0.636381282,213.071993 -0.344484677,222.626606 2.03563066,233 L70,231.827325 Z" id="Path" fill="#F56250"></path>
                <path d="M116.252782,305.079161 L47,301 C79.4788793,325.628182 122.270667,341.970508 125,343 C124.332782,330.20721 121.100165,317.429422 116.252782,305.079161 Z" id="Path" fill="#F56250"></path>
                <path d="M105.991385,281.42804 L106,281.38163 C101.536071,273.330426 96.6412871,265.525244 91.3369161,258 L14,262.223709 C15.791635,265.466236 17.7573288,268.721176 19.8970815,271.988531 C22.9975725,276.635925 26.5159449,280.991124 30.4084723,285 L105.991385,281.42804 Z" id="Path" fill="#F56250"></path>
                <path d="M52,349 C52,349 160.264957,306.25 291,349" id="Path" fill="#2F2E41"></path>
                <path d="M130.074284,316.036297 C130.160514,317.171338 130.306586,318.301459 130.511938,319.422317 C130.511938,319.422317 140.109447,325.685907 140.877246,318.685426 C141.376311,314.124059 140.247644,312.064434 139.395398,311.183866 L139.381946,311.169815 C138.869799,310.650134 138.581158,309.963922 138.573844,309.248645 L138.573844,301 L130.128039,303.579124 L130.511938,310.579609 C129.943773,312.034972 129.936086,314.208793 130.074284,316.036297 Z" id="Path" fill="#FFB9B9"></path>
                <path d="M130,316.174414 C130.086816,317.283168 130.233882,318.387115 130.44063,319.482015 C130.44063,319.482015 140.103392,325.600543 140.876411,318.76219 C141.378869,314.306462 140.242529,312.294537 139.384488,311.434363 C138.700642,310.953404 137.786969,310.864727 137.01131,311.204033 C135.465266,310.563373 133.764609,311.632329 132.357707,313.014382 C131.404314,313.950337 130.609323,315.015862 130,316.174414 L130,316.174414 Z" id="Path" fill="#000000" opacity="0.05"></path>
                <path d="M137.231576,311.212505 C137.231576,311.212505 141.282397,308.967922 142.018938,319.068542 C142.755479,329.169163 143.123712,328.046874 143.123712,328.046874 C143.123712,328.046874 146.8063,337.025205 139.072891,335.902916 C131.339481,334.780628 127.656872,334.03243 128.025105,329.543264 C128.24707,326.837496 128.870393,322.908626 129.330588,320.214003 C129.769107,317.544954 130.97492,315.067282 132.796303,313.092742 C134.140018,311.655881 135.75854,310.547444 137.231576,311.212505 Z" id="Path" fill="#2F2E41"></path>
                <path d="M181.11693,324.654472 L185.28927,326.744917 C185.28927,326.744917 198.324245,328.823643 194.189854,321.112884 C192.993406,318.808839 192.080038,316.35792 191.471162,313.817579 C190.600282,310.279514 190.116099,306.650745 190.027783,303 L179,304.598184 C182.596133,309.572807 182.140625,317.643302 181.584003,321.869946 C181.358763,323.573558 181.11693,324.654472 181.11693,324.654472 Z" id="Path" fill="#FFB9B9"></path>
                <path d="M181,324.68693 L185.207482,326.748447 C185.207482,326.748447 198.352244,328.798407 194.183031,321.194352 C192.976505,318.922191 192.055445,316.505187 191.44144,314 C188.887918,314.499208 186.94509,318.233415 186.94509,318.233415 C184.885802,325.496124 183.033362,323.68113 181.471007,321.940937 C181.24387,323.620974 181,324.68693 181,324.68693 Z" id="Path" fill="#000000" opacity="0.05"></path>
                <path d="M187.010028,318.316252 C187.010028,318.316252 190.338384,311.984669 194.030153,314.658667 C197.721921,317.332664 195.890192,321.15295 207.847729,324.894012 C219.805267,328.635074 211.902885,336.573583 204.586584,335.967125 C197.270282,335.360668 181.671409,332.501802 181.671409,332.501802 C181.671409,332.501802 177.616254,320.822231 179.498371,320.558107 C181.380489,320.293984 183.977842,328.911851 187.010028,318.316252 Z" id="Path" fill="#2F2E41"></path>
                <path d="M204.035958,335.472278 C208.815459,335.887501 213.841208,332.504226 213.488009,329 C215.772006,332.957294 209.990447,337.439683 204.530571,336.965328 C197.168783,336.325761 181.472947,333.310691 181.472947,333.310691 C181.472947,333.310691 181.28093,332.73089 181,331.821813 C181.457011,331.909418 196.784262,334.842306 204.035958,335.472278 Z" id="Path" fill="#FFFFFF" opacity="0.3"></path>
                <path d="M128.044221,330 C128.468896,333.530903 132.143807,334.273096 139.074134,335.328168 C142.598567,335.864724 143.748918,334.199695 143.960562,332.229301 C144.19095,334.752973 143.518394,337.574718 139.074134,336.898121 C131.339836,335.720655 127.656834,334.935682 128.025108,330.225828 C128.030867,330.152546 128.037973,330.074955 128.044221,330 Z" id="Path" fill="#FFFFFF" opacity="0.3"></path>
                <path d="M111.262221,183.984836 L110.041106,202.592747 C110.041106,202.592747 109.064208,221.448769 116.635141,222.9374 C124.206074,224.42603 116.635141,198.871166 116.635141,198.871166 L116.635141,182 L111.262221,183.984836 Z" id="Path" fill="#FBBEBE"></path>
                <path d="M117.024517,117 L116.028914,119.219559 C116.028914,119.219559 116.27781,134.756355 116.028914,135.989427 C115.780019,137.222499 112.544372,146.840526 112.544372,147.826988 C112.544372,148.813449 110.055412,177.420888 109.557621,179.147201 C109.05983,180.873514 106.819765,186.299063 108.810934,187.038909 C110.802103,187.778756 114.535541,184.819365 116.028914,187.038909 C117.522287,189.258453 118.76677,187.038909 118.76677,186.299063 C118.76677,185.559217 119.264561,171.502108 122.251312,167.556256 C125.238063,163.610404 127.975919,154.732234 128.47371,153.005921 C128.971501,151.279608 129.718193,126.371411 129.967088,125.87818 C130.215984,125.384949 128.971501,118.726318 128.971501,118.726318 L117.024517,117 Z" id="Path" fill="#3F3D56"></path>
                <path d="M131.304432,143 C131.304432,143 128.356502,154.624393 126.391219,156.850342 C124.425936,159.076291 114.599501,175.647231 117.547405,197.659377 C120.495309,219.671523 125.654248,248.36152 125.654248,248.36152 C125.654248,248.36152 126.391234,258.501946 125.408588,261.222549 C124.425941,263.943152 129.830485,307.225467 129.830485,307.225467 C129.830485,307.225467 137.445967,313.161327 141.622203,305.7415 C141.622203,305.7415 140.639557,289.665214 141.622203,288.181246 C142.60485,286.697279 141.622203,259.985913 141.622203,259.985913 C141.622203,259.985913 142.359184,193.454811 146.289755,196.175414 C150.220327,198.896017 162.25771,245.146258 162.25771,245.146258 C162.25771,245.146258 167.416589,262.953843 167.170923,264.437806 C166.925258,265.921768 171.592795,284.471355 171.592795,284.471355 C171.592795,284.471355 176.014687,310.193433 177.734314,310.688072 C179.453942,311.182711 190.017353,311.430053 191,308.70945 L188.05207,285.460664 C188.05207,285.460664 185.104141,258.99662 183.630173,255.286709 C182.156206,251.576798 179.699602,198.896038 172.575436,183.314411 C172.575436,183.314411 169.873167,158.334335 167.907884,154.624424 C167.907884,154.624424 166.754963,149.527634 168.177645,144.769644 C168.177676,144.769614 134.006711,144.978617 131.304432,143 Z" id="Path" fill="#2F2E41"></path>
                <ellipse id="Oval" fill="#2F2E41" cx="146" cy="70.5" rx="21" ry="26.5"></ellipse>
                <path d="M189,101.561232 L185.77839,108.498053 L147.614696,119.64652 C147.614696,119.64652 121.098364,127.326571 118.372385,114.939362 C115.646407,102.552154 128.780663,101.313463 128.780663,101.313463 C128.780663,101.313463 133.736988,97.845047 139.932392,94.3766363 C142.004132,93.2147175 142.690586,91.3343397 142.685625,89.3449635 C142.680511,88.7533371 142.624962,88.163223 142.51958,87.5810297 C142.400061,86.9081644 142.234461,86.2442988 142.023949,85.5941182 C141.499322,83.9894666 140.797826,82.448115 139.932392,80.9984801 C139.932392,80.9984801 156.288263,74.5571401 156.040447,78.0255559 C155.935719,79.2749322 156.070289,80.532813 156.436947,81.7317893 C156.775364,82.7816964 157.231793,83.7898485 157.797486,84.7369195 C158.075005,85.2150501 158.384776,85.7105673 158.729244,86.2357849 C159.175324,86.9170775 159.683329,87.6429667 160.253321,88.4307879 C163.474931,92.8901768 174.131029,92.8901768 174.131029,92.8901768 C182.5568,91.8992242 189,101.561232 189,101.561232 Z" id="Path" fill="#FBBEBE"></path>
                <path d="M228.170173,141 C228.170173,141 245.896458,154.295816 249.343235,154.044926 C252.790012,153.794037 272.978282,152.539745 268.300515,157.306163 C263.622749,162.072581 242.449681,159.062208 242.449681,159.062208 L223,146.519009 L228.170173,141 Z" id="Path" fill="#FBBEBE"></path>
                <path d="M156,81.6281511 C152.434636,85.4664882 147.018324,86.9309045 142.027616,85.4058853 C141.519028,83.8363796 140.838977,82.3287875 140,80.9109032 C140,80.9109032 155.855862,74.6106449 155.615622,78.0030936 C155.514095,79.2251055 155.644552,80.4554355 156,81.6281511 L156,81.6281511 Z" id="Path" fill="#000000" opacity="0.1"></path>
                <circle id="Oval" fill="#FBBEBE" cx="146" cy="70" r="14"></circle>
                <path d="M129.00373,111.002756 C129.00373,111.002756 190.046326,97.2240806 190.292465,99.1924643 C190.538604,101.160848 193,105.09761 193,105.09761 L178.723908,121.336765 C178.723908,121.336765 180.446887,129.210289 177.000935,130.932626 C173.554983,132.654962 173.0627,145.695491 169.862887,145.941538 C166.663074,146.187585 129.249869,145.695491 129.00373,143.727107 C128.757591,141.758723 129.988291,140.528487 129.00373,140.036392 C128.019168,139.544297 126.542334,139.544297 127.773034,137.083819 C129.003735,134.623341 129.00373,124.289338 129.00373,124.289338 L117.435163,118.876301 C117.435163,118.876301 115.848679,114.291508 118.734106,113.508308 C121.619532,112.725108 129.00373,111.002756 129.00373,111.002756 Z" id="Path" fill="#3F3D56"></path>
                <path d="M190.186092,105 L192.426002,105 C192.426002,105 199.145728,109.451611 200.887877,113.408599 C202.630025,117.365588 208.851999,122.559138 210.345269,124.043007 C211.83854,125.526875 232.246601,139.623658 231.997743,141.60215 C231.748885,143.580641 226.024652,145.559143 225.775774,147.784946 C225.526895,150.010749 228.264562,151 226.522414,151 C224.780265,151 214.07847,144.817204 210.096412,142.591401 C206.114353,140.365598 197.901352,133.935485 196.905838,132.2043 C195.910325,130.473114 189.190594,127.505372 188.443964,126.268815 C187.697334,125.032258 176,119.344105 176,119.344105 L190.186092,105 Z" id="Path" fill="#3F3D56"></path>
                <circle id="Oval" fill="#2F2E41" cx="125" cy="55" r="8"></circle>
                <circle id="Oval" fill="#2F2E41" cx="160" cy="44" r="8"></circle>
                <ellipse id="Oval" fill="#2F2E41" cx="148.5" cy="61" rx="14.5" ry="9"></ellipse>
                <path d="M158.080268,84 C151.373033,86.8865702 146.072313,87.2289978 143,87.0711637 C143.104008,87.6998389 143.158835,88.3370651 143.163887,88.9759243 C143.52102,88.9919766 143.90506,89 144.313552,89 C147.706312,89 152.77465,88.3552728 159,85.6185134 L158.080268,84 Z" id="Path" fill="#2F2E41"></path>
                <rect id="Rectangle" fill="#3F3D56" x="254" y="158" width="215" height="129" rx="21.43307"></rect>
                <rect id="Rectangle" fill="#F56250" opacity="0.3" x="277" y="248" width="168" height="6"></rect>
                <rect id="Rectangle" fill="#F56250" opacity="0.3" x="277" y="232" width="168" height="6"></rect>
                <rect id="Rectangle" fill="#F56250" opacity="0.3" x="416" y="210" width="30" height="6"></rect>
                <rect id="Rectangle" fill="#F56250" opacity="0.3" x="335" y="194" width="110" height="6"></rect>
                <rect id="Rectangle" fill="#F56250" opacity="0.3" x="277" y="265" width="84" height="6"></rect>
                <rect id="Rectangle" fill="#F56250" x="277" y="174" width="42" height="42" rx="10.16535"></rect>
            </g>
        </g>
    </g>
</svg>